<!DOCTYPE svg PUBLIC "-//W3C//DTD SVG 1.1//EN" "http://www.w3.org/Graphics/SVG/1.1/DTD/svg11.dtd">
<!-- Uploaded to: SVG Repo, www.svgrepo.com, Transformed by: SVG Repo Mixer Tools -->
<svg fill="#ffffff" width="800px" height="800px" viewBox="0 0 512 512" data-name="Layer 1" id="Layer_1" xmlns="http://www.w3.org/2000/svg">
<g id="SVGRepo_bgCarrier" stroke-width="0"/>
<g id="SVGRepo_tracerCarrier" stroke-linecap="round" stroke-linejoin="round"/>
<g id="SVGRepo_iconCarrier">
<title/>
<path d="M464.93,445c-49.66,0-64.42-39.45-68.33-55.21l14.17-4.9a8,8,0,0,0,4.94-10.18l-44-126.87h52.49a8,8,0,0,0,8-8V226.31h17.54v13.34a8,8,0,0,0,16,0V197a8,8,0,0,0-16,0v13.35H432.22V175.65a8,8,0,0,0-8-8H293.46V143.89a55.42,55.42,0,0,0,35-51.4V67h8.32a8,8,0,1,0,0-16H209.54a8,8,0,0,0,0,16h8.33V92.49a55.41,55.41,0,0,0,35,51.4v23.76H168.21a8,8,0,0,0-8,8v3.64l-35.42,20.45H111.68a8,8,0,0,0,0,16h13.11l35.42,20.45v3.63a8,8,0,0,0,8,8H224.3v73.85l-18.5,18.5a8,8,0,1,0,11.32,11.31L238,330.65c.19-.19.37-.39.54-.59l.2-.27.26-.36c.08-.11.14-.23.21-.34l.2-.33.17-.36c.05-.12.11-.23.16-.35s.09-.24.13-.36a2.84,2.84,0,0,0,.13-.38c0-.12.07-.24.1-.37s.07-.26.09-.39.05-.29.07-.43,0-.23,0-.34a7,7,0,0,0,0-.79V247.82h45.82a33.17,33.17,0,0,1,31.33,22.3l42.89,123.75a8,8,0,0,0,10.18,4.94l11-3.8a103.82,103.82,0,0,0,12.13,28c10.91,17.32,32.15,38,71.33,38a8,8,0,1,0,0-16ZM268.87,147.62h.29c.45,0,.9.06,1.35.08.22,0,.43,0,.65,0,.66,0,1.33,0,2,0s1.35,0,2,0l.61,0c.46,0,.93,0,1.39-.08h.28v20h-8.59Zm-35-55.13V67h78.59V92.49a39.26,39.26,0,0,1-45.08,38.84,36.85,36.85,0,0,1-4.42-.91A39.39,39.39,0,0,1,233.87,92.49ZM142.93,207.74l17.28-10v20ZM358.27,339.05,344,297.82a17.49,17.49,0,0,1,3.75,2.25c4.52,3.46,8.43,9.24,10.72,15.85C361.66,325.19,361,333.94,358.27,339.05Zm5.86,16.88c11.78-7.79,16-26.36,9.44-45.25-3.34-9.63-9.06-17.91-16.1-23.31-6.11-4.68-12.9-6.87-19.31-6.37l-5.59-16.11a49.19,49.19,0,0,0-46.45-33.07H176.21v-.09s0-.1,0-.16V183.9c0-.05,0-.1,0-.16v-.09h240v48.17H360.49a8,8,0,0,0-7.56,10.62l45,129.93-13.14,4.55-.06,0-11.93,4.13ZM75,215.74H47.07a8,8,0,1,1,0-16H75a8,8,0,1,1,0,16Zm13.89-30a8,8,0,0,1-10.93,2.93l-24.16-14a8,8,0,1,1,8-13.85l24.16,14A8,8,0,0,1,88.86,185.76Zm0,44a8,8,0,0,1-2.93,10.92l-24.16,14a8,8,0,1,1-8-13.86l24.16-14A8,8,0,0,1,88.86,229.72Z"/>
</g>
</svg>